<?xml version="1.0" encoding="UTF-8"?>
<!DOCTYPE svg PUBLIC "-//W3C//DTD SVG 1.0//EN" "http://www.w3.org/TR/2001/REC-SVG-20010904/DTD/svg10.dtd">
<!-- Creator: CorelDRAW 2020 (64-Bit) -->
<svg xmlns="http://www.w3.org/2000/svg" xml:space="preserve" width="5906px" height="1181px" version="1.0" style="shape-rendering:geometricPrecision; text-rendering:geometricPrecision; image-rendering:optimizeQuality; fill-rule:evenodd; clip-rule:evenodd"
viewBox="0 0 5906 1181.2"
 xmlns:xlink="http://www.w3.org/1999/xlink"
 xmlns:xodm="http://www.corel.com/coreldraw/odm/2003">
 <defs>
  <style type="text/css">
   <![CDATA[
    .fil2 {fill:none}
    .fil0 {fill:black}
    .fil1 {fill:black;fill-rule:nonzero}
   ]]>
  </style>
   <clipPath id="id0">
    <path d="M-0.24 0.45l5906 0 0 1181.2 -5906 0 0 -1181.2z"/>
   </clipPath>
 </defs>
 <g id="Layer_x0020_1">
  <metadata id="CorelCorpID_0Corel-Layer"/>
  <g>
  </g>
  <g style="clip-path:url(#id0)">
   <g>
    <g id="_2511322400368">
     <rect class="fil0" x="2350.34" y="-592.88" width="23.62" height="2362.4"/>
     <rect class="fil0" x="3531.54" y="-644.94" width="23.62" height="2362.4"/>
     <path class="fil1" d="M649.19 380.4c0,-13.4 -1.25,-24.8 -3.75,-34.2 -2.5,-9.4 -5.85,-17.1 -10.05,-23.1 -4.2,-6 -9.15,-10.35 -14.85,-13.05 -5.71,-2.7 -11.76,-4.05 -18.16,-4.05 -6.4,0 -12.4,1.45 -18,4.35 -5.6,2.9 -10.5,7.35 -14.7,13.35 -4.2,6 -7.55,13.7 -10.05,23.1 -2.5,9.4 -3.75,20.6 -3.75,33.6 0,24.2 4.05,42.71 12.15,55.51 8.1,12.8 19.55,19.2 34.35,19.2 15,0 26.56,-6.4 34.66,-19.2 8.1,-12.8 12.15,-31.31 12.15,-55.51zm-46.81 95.11c-10.6,0 -20.25,-1.95 -28.95,-5.85 -8.7,-3.9 -16.2,-9.8 -22.5,-17.7 -6.3,-7.9 -11.15,-17.8 -14.55,-29.7 -3.4,-11.91 -5.1,-25.86 -5.1,-41.86 0,-17.2 2,-31.8 6,-43.8 4,-12 9.3,-21.8 15.9,-29.4 6.6,-7.61 14.15,-13.1 22.65,-16.51 8.5,-3.4 17.35,-5.1 26.55,-5.1 9.2,0 18.11,1.75 26.71,5.25 8.6,3.5 16.2,9.05 22.8,16.66 6.6,7.6 11.9,17.4 15.9,29.4 4,12 6,26.5 6,43.5 0,16 -1.7,29.95 -5.1,41.86 -3.4,11.9 -8.25,21.8 -14.55,29.7 -6.3,7.9 -13.85,13.8 -22.65,17.7 -8.81,3.9 -18.51,5.85 -29.11,5.85z"/>
     <path id="1" class="fil1" d="M719.09 456.91c0,-2.4 0.65,-4.7 1.95,-6.9 1.3,-2.2 2.95,-3.8 4.95,-4.8 3.8,2.2 8.75,4.35 14.86,6.45 6.1,2.1 13.35,3.15 21.75,3.15 7.8,0 15.15,-1.2 22.05,-3.6 6.9,-2.4 12.95,-6.3 18.15,-11.7 5.2,-5.4 9.3,-12.45 12.3,-21.15 3,-8.71 4.5,-19.36 4.5,-31.96 -1.4,1.6 -3.4,3.45 -6,5.55 -2.6,2.1 -5.85,4.1 -9.75,6 -3.9,1.9 -8.35,3.5 -13.35,4.8 -5,1.3 -10.6,1.95 -16.8,1.95 -8.4,0 -16.5,-1.1 -24.3,-3.3 -7.8,-2.2 -14.61,-5.6 -20.41,-10.2 -5.8,-4.6 -10.45,-10.6 -13.95,-18 -3.5,-7.4 -5.25,-16.4 -5.25,-27 0,-9.4 1.65,-17.85 4.95,-25.35 3.3,-7.5 7.8,-13.85 13.5,-19.05 5.7,-5.21 12.41,-9.2 20.11,-12.01 7.7,-2.8 15.95,-4.2 24.75,-4.2 10.2,0 19.65,1.75 28.35,5.25 8.7,3.5 16.2,8.9 22.5,16.21 6.3,7.3 11.2,16.55 14.7,27.75 3.5,11.2 5.25,24.5 5.25,39.9 0,18.4 -1.95,34 -5.85,46.81 -3.9,12.8 -9.4,23.2 -16.5,31.2 -7.1,8 -15.65,13.8 -25.65,17.4 -10,3.6 -21,5.4 -33,5.4 -6,0 -11.65,-0.4 -16.95,-1.2 -5.3,-0.8 -9.95,-2 -13.96,-3.6 -4,-1.6 -7.15,-3.55 -9.45,-5.85 -2.3,-2.3 -3.45,-4.95 -3.45,-7.95zm57.91 -72.31c5,0 9.75,-0.65 14.25,-1.95 4.5,-1.3 8.65,-3.1 12.45,-5.4 3.8,-2.3 7.05,-4.9 9.75,-7.8 2.7,-2.9 4.75,-5.85 6.15,-8.85 -0.4,-17 -4.65,-30.4 -12.75,-40.2 -8.1,-9.8 -19.35,-14.7 -33.75,-14.7 -11.2,0 -20.5,3.5 -27.9,10.5 -7.4,7 -11.11,16.8 -11.11,29.4 0,7 1.1,12.95 3.3,17.85 2.21,4.9 5.26,8.9 9.16,12 3.9,3.1 8.45,5.4 13.65,6.9 5.2,1.5 10.8,2.25 16.8,2.25z"/>
     <path id="2" class="fil1" d="M866.41 459.01c0,-4.8 1.45,-8.8 4.35,-12 2.9,-3.2 6.95,-4.8 12.15,-4.8 5.2,0 9.2,1.6 12,4.8 2.8,3.2 4.2,7.2 4.2,12 0,4.6 -1.4,8.5 -4.2,11.7 -2.8,3.2 -6.8,4.8 -12,4.8 -5.2,0 -9.25,-1.6 -12.15,-4.8 -2.9,-3.2 -4.35,-7.1 -4.35,-11.7z"/>
     <path id="3" class="fil1" d="M1040.42 380.4c0,-13.4 -1.25,-24.8 -3.75,-34.2 -2.5,-9.4 -5.85,-17.1 -10.05,-23.1 -4.2,-6 -9.15,-10.35 -14.85,-13.05 -5.7,-2.7 -11.75,-4.05 -18.15,-4.05 -6.4,0 -12.41,1.45 -18.01,4.35 -5.6,2.9 -10.5,7.35 -14.7,13.35 -4.2,6 -7.55,13.7 -10.05,23.1 -2.5,9.4 -3.75,20.6 -3.75,33.6 0,24.2 4.05,42.71 12.15,55.51 8.1,12.8 19.55,19.2 34.36,19.2 15,0 26.55,-6.4 34.65,-19.2 8.1,-12.8 12.15,-31.31 12.15,-55.51zm-46.8 95.11c-10.61,0 -20.26,-1.95 -28.96,-5.85 -8.7,-3.9 -16.2,-9.8 -22.5,-17.7 -6.3,-7.9 -11.15,-17.8 -14.55,-29.7 -3.4,-11.91 -5.1,-25.86 -5.1,-41.86 0,-17.2 2,-31.8 6,-43.8 4,-12 9.3,-21.8 15.9,-29.4 6.6,-7.61 14.15,-13.1 22.65,-16.51 8.5,-3.4 17.36,-5.1 26.56,-5.1 9.2,0 18.1,1.75 26.7,5.25 8.6,3.5 16.2,9.05 22.8,16.66 6.6,7.6 11.9,17.4 15.9,29.4 4,12 6,26.5 6,43.5 0,16 -1.7,29.95 -5.1,41.86 -3.4,11.9 -8.25,21.8 -14.55,29.7 -6.3,7.9 -13.85,13.8 -22.65,17.7 -8.8,3.9 -18.5,5.85 -29.1,5.85z"/>
     <path id="4" class="fil1" d="M1221.33 380.4c0,-13.4 -1.24,-24.8 -3.75,-34.2 -2.5,-9.4 -5.85,-17.1 -10.05,-23.1 -4.2,-6 -9.15,-10.35 -14.85,-13.05 -5.7,-2.7 -11.75,-4.05 -18.15,-4.05 -6.4,0 -12.4,1.45 -18,4.35 -5.6,2.9 -10.5,7.35 -14.7,13.35 -4.2,6 -7.55,13.7 -10.05,23.1 -2.5,9.4 -3.75,20.6 -3.75,33.6 0,24.2 4.05,42.71 12.15,55.51 8.1,12.8 19.55,19.2 34.35,19.2 15,0 26.55,-6.4 34.65,-19.2 8.1,-12.8 12.15,-31.31 12.15,-55.51zm-46.8 95.11c-10.6,0 -20.25,-1.95 -28.95,-5.85 -8.7,-3.9 -16.2,-9.8 -22.5,-17.7 -6.3,-7.9 -11.15,-17.8 -14.55,-29.7 -3.41,-11.91 -5.1,-25.86 -5.1,-41.86 0,-17.2 1.99,-31.8 6,-43.8 4,-12 9.3,-21.8 15.9,-29.4 6.6,-7.61 14.15,-13.1 22.65,-16.51 8.5,-3.4 17.35,-5.1 26.55,-5.1 9.2,0 18.1,1.75 26.7,5.25 8.6,3.5 16.2,9.05 22.81,16.66 6.6,7.6 11.9,17.4 15.9,29.4 4,12 6,26.5 6,43.5 0,16 -1.7,29.95 -5.1,41.86 -3.4,11.9 -8.25,21.8 -14.55,29.7 -6.31,7.9 -13.86,13.8 -22.66,17.7 -8.8,3.9 -18.5,5.85 -29.1,5.85z"/>
     <path id="5" class="fil1" d="M1441.85 334.5c1.6,-0.8 3.55,-1.5 5.85,-2.1 2.3,-0.6 4.85,-0.9 7.65,-0.9 8.4,0 13.51,2.6 15.31,7.8 3.6,10.8 7,21 10.2,30.6 3.2,9.6 6.3,18.85 9.3,27.75 3,8.9 5.9,17.66 8.7,26.26 2.8,8.6 5.6,17.5 8.4,26.7l1.2 0c2.8,-13.4 5.6,-26.55 8.4,-39.46 2.8,-12.9 5.5,-25.9 8.1,-39 2.6,-13.1 5.1,-26.4 7.5,-39.9 2.4,-13.5 4.7,-27.75 6.9,-42.76 2.8,-1.4 6.2,-2.1 10.2,-2.1 3.8,0 6.8,0.85 9,2.55 2.2,1.7 3.3,4.25 3.3,7.66 0,3.79 -0.55,9.6 -1.65,17.4 -1.1,7.8 -2.6,16.75 -4.5,26.85 -1.9,10.1 -4.1,21 -6.6,32.7 -2.5,11.7 -5.15,23.2 -7.95,34.5 -2.8,11.3 -5.6,22.16 -8.4,32.56 -2.8,10.4 -5.5,19.3 -8.1,26.7 -1.8,1 -4.1,1.95 -6.9,2.85 -2.8,0.9 -6,1.35 -9.6,1.35 -4.4,0 -8.1,-0.7 -11.1,-2.1 -3,-1.4 -5,-3.3 -6,-5.7 -2.2,-5.2 -4.7,-11.75 -7.5,-19.65 -2.8,-7.9 -5.75,-16.6 -8.85,-26.1 -3.1,-9.51 -6.26,-19.41 -9.46,-29.71 -3.19,-10.3 -6.3,-20.55 -9.3,-30.75 -3,10 -6.1,20.3 -9.3,30.9 -3.2,10.6 -6.35,20.85 -9.45,30.76 -3.1,9.9 -6.15,19.05 -9.15,27.45 -3,8.4 -5.7,15.4 -8.1,21 -1.6,1 -3.8,1.9 -6.6,2.7 -2.8,0.8 -6,1.2 -9.6,1.2 -4.6,0 -8.3,-0.75 -11.1,-2.25 -2.8,-1.5 -4.7,-3.35 -5.7,-5.55 -1.8,-4.2 -3.85,-10.2 -6.15,-18 -2.3,-7.8 -4.7,-16.65 -7.2,-26.55 -2.5,-9.91 -5.1,-20.56 -7.8,-31.96 -2.7,-11.4 -5.3,-22.75 -7.8,-34.05 -2.5,-11.3 -4.8,-22.2 -6.9,-32.7 -2.1,-10.5 -3.86,-19.95 -5.25,-28.36 1.39,-1.4 3.3,-2.7 5.7,-3.9 2.4,-1.2 5,-1.8 7.8,-1.8 7,0 11.2,3.7 12.6,11.11 2.6,12.6 5.1,24.75 7.5,36.45 2.4,11.7 4.85,23.6 7.35,35.7 2.5,12.1 5.15,24.65 7.95,37.65 2.8,13.01 5.9,27.11 9.3,42.31l1.2 0c2.8,-9 5.5,-17.55 8.1,-25.65 2.6,-8.11 5.3,-16.56 8.1,-25.36 2.8,-8.8 5.85,-18.4 9.15,-28.8 3.3,-10.4 7.05,-22.5 11.25,-36.3z"/>
     <path id="6" class="fil1" d="M1632.37 471.01c-1,0.4 -2.5,0.85 -4.5,1.35 -2,0.5 -4.2,0.75 -6.6,0.75 -8.8,0 -13.2,-3.7 -13.2,-11.1l0 -172.22c1,-0.4 2.55,-0.85 4.65,-1.35 2.1,-0.5 4.35,-0.75 6.75,-0.75 8.6,0 12.9,3.7 12.9,11.11l0 172.21z"/>
     <path id="7" class="fil1" d="M1820.48 335.1c0,8.6 -2.05,16.55 -6.15,23.85 -4.1,7.3 -10.95,12.95 -20.55,16.95 11.4,3.8 19.9,9.75 25.5,17.85 5.6,8.1 8.4,17.25 8.4,27.46 0,18.2 -6.55,31.7 -19.65,40.5 -13.1,8.8 -31.75,13.2 -55.95,13.2 -8.4,0 -16.55,-0.35 -24.45,-1.05 -7.9,-0.7 -15.45,-2.05 -22.66,-4.05 -8.4,-2.4 -12.6,-7 -12.6,-13.8l0 -153.61c0,-5.81 3.3,-9.61 9.9,-11.41 6.8,-2 14.01,-3.35 21.61,-4.05 7.6,-0.7 15.9,-1.05 24.9,-1.05 22.6,0 40.2,4 52.8,12.01 12.6,8 18.9,20.4 18.9,37.2zm-104.1 51.6l0 64.81c4.8,1 10.35,1.8 16.65,2.4 6.3,0.6 12.65,0.9 19.05,0.9 16.6,0 29.2,-2.75 37.8,-8.25 8.6,-5.5 12.9,-14.15 12.9,-25.95 0,-10.41 -3.85,-18.66 -11.55,-24.76 -7.7,-6.1 -19.05,-9.15 -34.05,-9.15l-40.8 0zm0 -19.8l40.8 0c12.6,0 22.15,-2.8 28.65,-8.4 6.5,-5.6 9.75,-13.2 9.75,-22.8 0,-19.8 -15.6,-29.7 -46.8,-29.7 -7,0 -13.05,0.25 -18.15,0.75 -5.1,0.5 -9.85,1.15 -14.25,1.95l0 58.2z"/>
     <path class="fil1" d="M503.94 839.87c0,9.31 4.65,13.96 13.96,13.96 12.5,0 27.57,-9.03 45.21,-27.08 15.97,-16.12 28.16,-32.54 36.56,-49.28 8.41,-16.74 12.61,-29.48 12.61,-38.23 0,-1.39 -0.14,-2.78 -0.42,-4.17 -3.05,0 -6.18,-1.59 -9.37,-4.79l0 0.21c-2.09,-1.67 -3.13,-3.37 -3.13,-5.11 0,-1.73 0.7,-3.16 2.08,-4.27 1.39,-1.11 3.2,-1.66 5.42,-1.66 2.22,0 3.79,0.86 4.69,2.6 0.9,1.74 2.05,3.3 3.44,4.69 1.39,1.39 2.01,2.36 1.87,2.92 0.84,1.25 2.12,1.87 3.86,1.87 1.73,0 3.71,-0.83 5.93,-2.5 2.23,-1.67 4,-2.5 5.32,-2.5 1.32,0 1.98,0.42 1.98,1.25 0,1.53 -1.32,2.99 -3.96,4.38 -1.39,1.11 -3.06,1.73 -5,1.87l-6.67 0c1.67,5.7 2.5,9.79 2.5,12.29 0,11.12 -5.31,25.56 -15.94,43.34 -10.62,17.78 -24.27,33.54 -40.94,47.3 -16.8,14.16 -32.05,21.25 -45.73,21.25 -13.68,0 -20.52,-6.67 -20.52,-20 0,-10.56 4.44,-25.63 13.33,-45.22l15 -32.71 -20.42 15.84c-6.39,5.28 -12.88,11.07 -19.48,17.39 -6.6,6.32 -18.09,19.35 -34.48,39.07l-24.17 29.59c-3.89,4.44 -7.36,6.66 -10.42,6.66 -2.36,0 -3.54,-1.52 -3.54,-4.58 0,-3.06 1.25,-7.01 3.75,-11.88l40.21 -57.92c24.31,-35.7 36.47,-58.34 36.47,-67.92 0,-5.28 -4.87,-7.92 -14.59,-7.92 -11.81,0 -28.27,7.23 -49.38,21.67 -11.39,7.78 -21.39,17.54 -30,29.27 -8.61,11.74 -12.92,21.46 -12.92,29.17 0,7.71 5.14,11.57 15.42,11.57 9.58,0 19.45,-4.45 29.59,-13.34 3.61,-3.05 5.69,-4.58 6.25,-4.58 0.55,0 0.76,0.48 0.62,1.46 -1.53,5.28 -7.19,10.31 -16.98,15.1 -9.79,4.8 -18.44,7.19 -25.94,7.19 -1.94,0 -3.26,-0.07 -3.96,-0.21l-0.21 0c-11.11,-2.36 -16.66,-7.85 -16.66,-16.46 0,-8.61 4.79,-18.96 14.37,-31.04 16.95,-21.39 38.76,-37.3 65.42,-47.71 13.75,-5.28 25.08,-7.92 33.97,-7.92 10.97,0 16.46,3.61 16.46,10.83 0,15 -18.9,47.58 -56.68,97.72 -12.64,16.81 -19.03,25.21 -19.16,25.21 0.41,0 7.67,-7.85 21.77,-23.54 14.1,-15.7 27.47,-29.1 40.11,-40.22 4.86,-4.3 13.26,-12.22 25.21,-23.75 6.25,-5.83 12.98,-11.11 20.21,-15.83 1.8,-1.11 4.41,-1.67 7.81,-1.67 3.4,0 5.73,0.97 6.98,2.92 -12.78,15.83 -23.93,33.58 -33.44,53.23 -9.52,19.66 -14.27,33.72 -14.27,42.19zm121.05 -105.84l0.21 0 -0.21 0z"/>
     <path id="1" class="fil1" d="M633.59 848.21c-1.52,0 -2.91,-0.21 -4.16,-0.63 -8.89,-2.5 -13.34,-7.5 -13.34,-15 0,-9.72 6.11,-20.97 18.34,-33.75 12.22,-12.78 23.19,-19.17 32.92,-19.17 3.19,0 5.8,0.87 7.81,2.6 2.01,1.74 3.02,3.86 3.02,6.36 0,7.78 -5.87,15.21 -17.6,22.29 -11.74,7.09 -21.29,10.63 -28.65,10.63 -1.11,0 -2.09,-0.14 -2.92,-0.42 -2.08,3.75 -3.13,7.71 -3.13,11.88 0,7.22 3.44,10.83 10.32,10.83 6.87,0 15.8,-4.65 26.77,-13.96 8.47,-6.8 15.7,-14.03 21.67,-21.67 1.25,-1.66 2.33,-2.5 3.23,-2.5 0.9,0 1.35,0.42 1.35,1.25 0,0.84 -0.55,2.02 -1.66,3.55 -7.5,9.86 -16.53,18.61 -27.09,26.25 -10.55,7.64 -19.51,11.46 -26.88,11.46zm39.38 -60.01c0,-1.66 -1.77,-2.5 -5.31,-2.5 -3.54,0 -8.58,2.71 -15.11,8.13 -8.75,7.22 -15.55,14.79 -20.41,22.71 0.83,0.28 1.73,0.41 2.7,0.41 5.28,0 12.33,-2.81 21.15,-8.43 8.82,-5.63 14.34,-11.78 16.57,-18.44 0.27,-0.7 0.41,-1.32 0.41,-1.88z"/>
     <path id="2" class="fil1" d="M759.5 782.37c15.56,-25.28 26.39,-37.92 32.5,-37.92 0.98,0 2.33,0.31 4.07,0.94 1.73,0.62 2.6,1.56 2.6,2.81 0,0.69 -0.35,1.6 -1.04,2.71 -11.11,13.61 -19.38,23.82 -24.79,30.63 -16.39,20.69 -25.42,35.55 -27.09,44.58 -0.42,1.95 -0.63,3.89 -0.63,5.84 0,6.25 2.57,9.37 7.71,9.37 10.28,0 23.69,-9.51 40.22,-28.54 1.38,-1.39 2.56,-2.19 3.54,-2.4 0.97,-0.21 1.46,0.04 1.46,0.73 0,0.7 -0.42,1.53 -1.25,2.5 -16.12,19.31 -30.42,30.07 -42.93,32.3 -0.69,0.13 -1.66,0.2 -2.91,0.2 -4.31,0 -7.54,-1.49 -9.69,-4.48 -2.15,-2.98 -3.23,-6.21 -3.23,-9.68 0,-3.89 0.77,-8.2 2.29,-12.92l-16.87 16.87c-7.64,7.09 -13.65,10.63 -18.03,10.63 -4.37,0 -8.02,-1.18 -10.93,-3.54 -3.48,-2.64 -5.21,-6.32 -5.21,-11.04 0,-10.14 7.08,-22.26 21.25,-36.36 14.17,-14.1 27.15,-21.15 38.96,-21.15 3.89,0 6.6,1.04 8.13,3.13 0.55,0.69 1.18,2.29 1.87,4.79zm-61.46 52.09c0,5 1.73,7.5 5.21,7.5 5.97,0 15.9,-8.2 29.79,-24.59 2.5,-2.92 10.83,-13.82 25,-32.71 -0.97,-1.67 -2.64,-2.5 -5,-2.5 -8.61,0 -19.93,6.56 -33.96,19.69 -14.03,13.12 -21.04,23.99 -21.04,32.61z"/>
     <path id="3" class="fil1" d="M871.24 782.37c15.56,-25.28 26.39,-37.92 32.5,-37.92 0.98,0 2.33,0.31 4.07,0.94 1.73,0.62 2.6,1.56 2.6,2.81 0,0.69 -0.35,1.6 -1.04,2.71 -11.11,13.61 -19.38,23.82 -24.8,30.63 -16.39,20.69 -25.41,35.55 -27.08,44.58 -0.42,1.95 -0.63,3.89 -0.63,5.84 0,6.25 2.57,9.37 7.71,9.37 10.28,0 23.69,-9.51 40.22,-28.54 1.38,-1.39 2.56,-2.19 3.54,-2.4 0.97,-0.21 1.46,0.04 1.46,0.73 0,0.7 -0.42,1.53 -1.25,2.5 -16.12,19.31 -30.42,30.07 -42.93,32.3 -0.69,0.13 -1.66,0.2 -2.91,0.2 -4.31,0 -7.54,-1.49 -9.69,-4.48 -2.15,-2.98 -3.23,-6.21 -3.23,-9.68 0,-3.89 0.76,-8.2 2.29,-12.92l-16.87 16.87c-7.64,7.09 -13.65,10.63 -18.03,10.63 -4.37,0 -8.02,-1.18 -10.93,-3.54 -3.48,-2.64 -5.21,-6.32 -5.21,-11.04 0,-10.14 7.08,-22.26 21.25,-36.36 14.17,-14.1 27.15,-21.15 38.96,-21.15 3.89,0 6.6,1.04 8.12,3.13 0.56,0.69 1.19,2.29 1.88,4.79zm-61.46 52.09c0,5 1.73,7.5 5.21,7.5 5.97,0 15.9,-8.2 29.79,-24.59 2.5,-2.92 10.83,-13.82 25,-32.71 -0.97,-1.67 -2.64,-2.5 -5,-2.5 -8.61,0 -19.93,6.56 -33.96,19.69 -14.03,13.12 -21.04,23.99 -21.04,32.61z"/>
     <path id="4" class="fil1" d="M959.64 760.49c2.09,0 4.07,0.66 5.94,1.98 1.88,1.32 2.82,2.88 2.82,4.69 0,1.8 -0.87,3.37 -2.61,4.69 -1.74,1.32 -3.65,1.98 -5.73,1.98 -2.08,0 -3.99,-0.77 -5.73,-2.3 -1.73,-1.52 -2.6,-3.26 -2.6,-5.21 0,-3.88 2.64,-5.83 7.91,-5.83zm-37.71 87.3c-7.08,0 -10.62,-4.58 -10.62,-13.75 0,-7.5 4.09,-17.88 12.29,-31.15 8.19,-13.26 14.79,-19.97 19.79,-20.11 1.39,0 2.95,0.56 4.69,1.67 1.74,1.11 2.61,2.22 2.61,3.33 -0.7,0.98 -1.53,2.05 -2.51,3.23 -0.97,1.19 -2.01,2.47 -3.12,3.86 -1.11,1.39 -2.64,3.37 -4.58,5.94 -1.95,2.57 -3.82,5.03 -5.63,7.39 -10.42,13.48 -15.63,22.75 -15.63,27.82 0,5.07 1.74,7.6 5.21,7.6 2.92,0 6.88,-1.59 11.88,-4.79 11.67,-7.22 20.9,-15.14 27.71,-23.75 2.5,-3.2 4.2,-4.79 5.1,-4.79 0.91,0 1.36,0.55 1.36,1.66 0,1.11 -1.6,3.34 -4.79,6.67 -3.2,3.33 -5.73,5.97 -7.61,7.92 -1.87,1.94 -3.16,3.23 -3.85,3.85 -0.7,0.63 -1.98,1.81 -3.86,3.54 -1.87,1.74 -3.3,2.96 -4.27,3.65 -0.97,0.7 -2.36,1.74 -4.17,3.13 -1.8,1.39 -3.4,2.39 -4.79,3.02 -1.39,0.62 -2.98,1.35 -4.79,2.19 -2.92,1.24 -6.39,1.87 -10.42,1.87z"/>
     <path id="5" class="fil1" d="M1009.5 779.66c3.75,0 5.63,1.46 5.63,4.37 0,0.84 -0.21,1.67 -0.63,2.51 -12.5,17.36 -20,30.48 -22.5,39.37 32.36,-32.36 52.02,-48.54 58.96,-48.54 0.7,-0.14 1.32,-0.21 1.88,-0.21 3.89,0 5.83,1.74 5.83,5.21 0,0.69 -0.14,1.39 -0.41,2.08 -0.28,0.7 -3.06,4.45 -8.34,11.25 -6.11,7.23 -11.28,14.17 -15.52,20.84 -4.24,6.66 -6.35,12.22 -6.35,16.67 0,4.44 0.97,6.66 2.91,6.66 6.11,0 16.74,-8.4 31.88,-25.21 0.28,-0.28 0.76,-0.9 1.46,-1.87 2.08,-2.5 3.33,-3.75 3.75,-3.75 0.42,0 0.62,0.69 0.62,2.08 0,1.39 -0.97,3.19 -2.91,5.42 -17.23,19.58 -29.45,29.38 -36.67,29.38 -6.81,0 -10.21,-3.76 -10.21,-11.26 0,-7.5 2.78,-16.11 8.33,-25.83l13.34 -21.67c-9.45,6.95 -17.85,14.55 -25.21,22.81 -7.37,8.27 -14.07,16.29 -20.11,24.07 -6.04,7.78 -9.55,11.67 -10.52,11.67 -2.09,0 -3.72,-0.87 -4.9,-2.61 -1.18,-1.73 -1.77,-3.89 -1.77,-6.46 0,-2.57 0.9,-6 2.71,-10.31 1.81,-4.31 4.1,-9.51 6.88,-15.63l-12.51 13.13c-3.05,3.06 -4.96,4.58 -5.72,4.58 -0.77,0 -1.15,-0.45 -1.15,-1.35 0,-0.9 0.55,-1.91 1.67,-3.02 5.14,-5.14 9.58,-10.07 13.33,-14.8 3.61,-4.72 11.04,-13.75 22.29,-27.08 1.25,-1.67 2.57,-2.5 3.96,-2.5z"/>
     <path id="6" class="fil1" d="M1143.95 781.95l2.92 -0.62c1.8,0 3.23,0.55 4.27,1.66 1.04,1.11 1.56,1.98 1.56,2.61 0,0.62 -0.07,1.32 -0.21,2.08 -0.13,0.77 -2.15,4.27 -6.04,10.52 -4.86,8.48 -8.89,15.63 -12.08,21.46 -11.25,20.98 -19.87,35.35 -25.84,43.13 -12.78,16.95 -24.93,25.42 -36.46,25.42 -4.03,0 -7.53,-1.7 -10.52,-5.1 -2.99,-3.41 -4.55,-7.19 -4.69,-11.36 0.42,-1.67 1.04,-2.5 1.88,-2.5 0.41,0 0.76,0.49 1.04,1.46 0.69,3.61 2.01,6.39 3.96,8.33 1.94,1.95 3.89,2.92 5.83,2.92 7.92,0 16.39,-5.21 25.42,-15.63 5.97,-6.94 12.57,-17.08 19.79,-30.42l10.42 -20.62 -15.63 15.83c-10,9.59 -16.84,14.38 -20.52,14.38 -3.68,0 -7.19,-1.25 -10.52,-3.75 -3.75,-2.78 -5.63,-6.46 -5.63,-11.05 0,-10.13 7.12,-22.22 21.36,-36.25 14.24,-14.03 27.19,-21.04 38.86,-21.04 4.72,0 7.78,1.53 9.17,4.58 0.41,1.11 0.76,2.05 1.04,2.82 0.27,0.76 0.48,1.14 0.62,1.14zm-62.29 51.26c0,5 1.73,7.5 5.2,7.5 8.06,0 19.03,-8.82 32.92,-26.46l22.09 -30.42c-0.84,-1.95 -2.57,-2.92 -5.21,-2.92 -8.61,0 -19.93,6.63 -33.96,19.9 -14.03,13.26 -21.04,24.06 -21.04,32.4z"/>
     <path id="7" class="fil1" d="M1340.76 789.24c-6.94,0 -13.4,-0.55 -19.38,-1.66 1.95,6.11 6.05,19.93 12.3,41.46 1.94,6.25 5,12.57 9.16,18.96 5.7,8.19 10.98,12.29 15.84,12.29 5.83,0 10.69,-5.9 14.58,-17.71 0.7,-2.78 1.43,-4.17 2.19,-4.17 0.76,0 1.32,0.8 1.67,2.4 0.34,1.6 0.52,2.67 0.52,3.23 0,3.47 -1.95,7.92 -5.84,13.33 -5.13,7.64 -10.76,11.46 -16.87,11.46 -6.11,0 -11.74,-3.05 -16.88,-9.16 -5.14,-6.12 -10.17,-17.26 -15.1,-33.44 -4.93,-16.19 -7.4,-26.5 -7.4,-30.94 0,-0.7 0.07,-1.25 0.21,-1.67 -16.67,22.08 -28.61,36.67 -35.84,43.75 -16.11,15.7 -32.57,23.55 -49.38,23.55 -11.8,0 -17.71,-4.45 -17.71,-13.34 0,-4.44 1.39,-9.34 4.17,-14.69 2.78,-5.34 6.18,-10.03 10.21,-14.06 4.03,-4.03 7.57,-6.04 10.62,-6.04 0.56,0 0.84,0.14 0.84,0.41 0,0.7 -1.74,2.44 -5.21,5.21 -3.47,2.78 -6.81,6.7 -10,11.77 -3.2,5.07 -4.79,9.69 -4.79,13.86 0,7.36 4.93,11.04 14.79,11.04 18.47,0 43.89,-21.67 76.26,-65 1.8,-2.36 3.33,-4.03 4.58,-5l-3.33 -1.25c-1.81,0.69 -3.27,1.04 -4.38,1.04 -2.92,0 -4.37,-1.18 -4.37,-3.54 0,-3.2 2.15,-5.28 6.46,-6.25 0.55,-0.14 1.04,-0.21 1.45,-0.21 2.5,0 5.42,1.25 8.75,3.75 12.23,-13.61 18.48,-20.56 18.76,-20.84 10.14,-10.41 16.98,-15.62 20.52,-15.62 3.54,0 5.31,1.52 5.31,4.58 0,1.39 -0.31,2.71 -0.94,3.96 -0.62,1.25 -1.35,1.87 -2.18,1.87 -0.84,0.28 -1.25,-0.13 -1.25,-1.25 0,-0.55 0.41,-1.39 1.25,-2.5 0.13,-1.94 -0.49,-2.91 -1.88,-2.91 -4.44,0 -15.21,11.8 -32.29,35.42 4.16,0.27 7.64,0.41 10.41,0.41 32.23,0 52.37,-8.33 60.43,-25 1.66,-3.61 2.5,-6.94 2.5,-10 0,-6.11 -2.78,-11.39 -8.34,-15.83 -8.89,-7.23 -23.33,-10.84 -43.34,-10.84 -20,0 -40.42,5.07 -61.25,15.21 -25.28,12.36 -37.92,26.88 -37.92,43.55 0,5.41 3.4,8.12 10.21,8.12 6.81,0 14.03,-2.5 21.67,-7.5 7.64,-5 12.78,-9.93 15.42,-14.79 0.97,-1.81 1.91,-2.71 2.81,-2.71 0.9,0 1.14,0.55 0.73,1.67 -2.64,7.77 -8.51,14.41 -17.61,19.89 -9.1,5.49 -18.58,8.23 -28.44,8.23 -9.86,0 -14.79,-3.12 -14.79,-9.37 0,-0.42 0,-0.9 0,-1.46 2.08,-18.2 13.23,-33.65 33.44,-46.36 20.21,-12.71 44.55,-19.06 73.03,-19.06 26.53,0 45.35,4.58 56.46,13.75 6.67,5.55 10,12.08 10,19.58 0,3.2 -0.76,6.67 -2.29,10.42 -4.31,10.14 -13.13,17.68 -26.46,22.61 -13.34,4.93 -27.37,7.39 -42.09,7.39z"/>
     <path id="8" class="fil1" d="M1403.33 848.21c-1.53,0 -2.92,-0.21 -4.17,-0.63 -8.89,-2.5 -13.33,-7.5 -13.33,-15 0,-9.72 6.11,-20.97 18.33,-33.75 12.23,-12.78 23.2,-19.17 32.92,-19.17 3.2,0 5.8,0.87 7.81,2.6 2.02,1.74 3.03,3.86 3.03,6.36 0,7.78 -5.87,15.21 -17.61,22.29 -11.74,7.09 -21.29,10.63 -28.65,10.63 -1.11,0 -2.08,-0.14 -2.91,-0.42 -2.09,3.75 -3.13,7.71 -3.13,11.88 0,7.22 3.44,10.83 10.31,10.83 6.88,0 15.8,-4.65 26.78,-13.96 8.47,-6.8 15.69,-14.03 21.66,-21.67 1.25,-1.66 2.33,-2.5 3.23,-2.5 0.91,0 1.36,0.42 1.36,1.25 0,0.84 -0.56,2.02 -1.67,3.55 -7.5,9.86 -16.53,18.61 -27.08,26.25 -10.56,7.64 -19.52,11.46 -26.88,11.46zm39.38 -60.01c0,-1.66 -1.77,-2.5 -5.32,-2.5 -3.54,0 -8.57,2.71 -15.1,8.13 -8.75,7.22 -15.56,14.79 -20.42,22.71 0.83,0.28 1.74,0.41 2.71,0.41 5.28,0 12.33,-2.81 21.15,-8.43 8.82,-5.63 14.34,-11.78 16.56,-18.44 0.28,-0.7 0.42,-1.32 0.42,-1.88z"/>
     <path id="9" class="fil1" d="M1476.52 848.21c-1.52,0 -2.91,-0.21 -4.16,-0.63 -8.89,-2.5 -13.34,-7.5 -13.34,-15 0,-9.72 6.11,-20.97 18.34,-33.75 12.22,-12.78 23.19,-19.17 32.92,-19.17 3.19,0 5.79,0.87 7.81,2.6 2.01,1.74 3.02,4.1 3.02,7.09 0,2.98 -0.9,6.11 -2.71,9.37 -1.8,3.27 -4.51,4.9 -8.12,4.9 -3.62,0 -5.42,-1.11 -5.42,-3.33 0,-1.53 0.94,-3.86 2.81,-6.98 1.88,-3.13 2.81,-4.8 2.81,-5 0,-0.21 -0.2,-0.32 -0.62,-0.32 -3.89,0.42 -9.2,3.2 -15.94,8.34 -6.74,5.14 -11.35,9.44 -13.86,12.91l-8.12 11.88c-1.39,2.22 -2.4,4.86 -3.02,7.92 -0.63,3.05 -0.94,5.35 -0.94,6.87 0,1.53 0.87,3.27 2.6,5.21 1.74,1.95 4.21,2.92 7.4,2.92 6.95,0 15.56,-4.06 25.84,-12.19 10.28,-8.12 18.19,-15.87 23.75,-23.23 0.69,-0.83 1.53,-1.25 2.5,-1.25 0.97,0 1.46,0.28 1.46,0.83 0,0.56 -0.35,1.25 -1.04,2.09 -7.64,10.14 -16.78,18.99 -27.4,26.56 -10.63,7.57 -19.48,11.36 -26.57,11.36z"/>
     <path id="10" class="fil1" d="M1544.72 848.21c-1.53,0 -2.92,-0.21 -4.17,-0.63 -8.89,-2.5 -13.34,-7.5 -13.34,-15 0,-9.72 6.12,-20.97 18.34,-33.75 12.22,-12.78 23.2,-19.17 32.92,-19.17 3.19,0 5.8,0.87 7.81,2.6 2.02,1.74 3.02,3.86 3.02,6.36 0,7.78 -5.86,15.21 -17.6,22.29 -11.74,7.09 -21.29,10.63 -28.65,10.63 -1.11,0 -2.08,-0.14 -2.92,-0.42 -2.08,3.75 -3.12,7.71 -3.12,11.88 0,7.22 3.44,10.83 10.31,10.83 6.88,0 15.8,-4.65 26.77,-13.96 8.48,-6.8 15.7,-14.03 21.67,-21.67 1.25,-1.66 2.33,-2.5 3.23,-2.5 0.91,0 1.36,0.42 1.36,1.25 0,0.84 -0.56,2.02 -1.67,3.55 -7.5,9.86 -16.53,18.61 -27.09,26.25 -10.55,7.64 -19.51,11.46 -26.87,11.46zm39.37 -60.01c0,-1.66 -1.77,-2.5 -5.31,-2.5 -3.54,0 -8.58,2.71 -15.1,8.13 -8.75,7.22 -15.56,14.79 -20.42,22.71 0.83,0.28 1.73,0.41 2.71,0.41 5.28,0 12.32,-2.81 21.14,-8.43 8.82,-5.63 14.35,-11.78 16.57,-18.44 0.28,-0.7 0.41,-1.32 0.41,-1.88z"/>
     <path id="11" class="fil1" d="M1680.62 798.41c0,11.25 -6.42,21.91 -19.27,31.98 -12.85,10.07 -23.99,15.11 -33.44,15.11 -6.25,0 -10.8,-0.42 -13.65,-1.25 -2.84,-0.84 -6,-3.34 -9.48,-7.5 -2.36,1.94 -5.55,6.91 -9.58,14.89 -4.03,7.99 -6.04,14.83 -6.04,20.53 0,2.64 1.32,6.11 3.96,10.41 0.27,0.7 0.07,1.29 -0.63,1.78 -0.69,0.48 -1.21,0.72 -1.56,0.72 -0.35,0 -0.66,-0.06 -0.94,-0.2 -5.83,-3.2 -8.75,-9.41 -8.75,-18.65 0,-9.24 7.67,-25.21 23.02,-47.92 15.35,-22.71 25.94,-35.04 31.78,-36.98 1.39,-0.28 2.29,-0.42 2.7,-0.42 2.37,0 3.55,2.57 3.55,7.71 1.39,-1.39 4.23,-2.71 8.54,-3.96 5.28,-1.39 9.03,-2.08 11.25,-2.08 5,0 9.34,1.42 13.02,4.27 3.68,2.84 5.52,6.7 5.52,11.56zm-10.62 -2.08c0,-5.28 -3.13,-7.92 -9.38,-7.92 -6.25,0 -11.94,1.32 -17.08,3.96 -2.36,1.11 -8.89,7.22 -19.59,18.33 -10.69,11.12 -16.04,18.27 -16.04,21.46 0,2.5 1.91,4.38 5.73,5.63 3.82,1.25 7.67,1.87 11.56,1.87 7.64,0 17.02,-4.34 28.13,-13.02 11.11,-8.68 16.67,-18.78 16.67,-30.31z"/>
     <path id="12" class="fil1" d="M1749.44 778.41l30.01 -0.42c0.41,0.28 0.62,0.49 0.62,0.63 0,1.25 -8.65,2.98 -25.94,5.21 -17.29,2.22 -26.63,3.54 -28.02,3.95 -2.64,2.37 -7.5,9.42 -14.59,21.15 -7.08,11.74 -10.62,20.32 -10.62,25.73 0,5.14 3.54,7.71 10.62,7.71 3.34,0 7.71,-1.04 13.13,-3.12 5.42,-2.09 9.58,-4.03 12.5,-5.84 7.78,-4.86 16.11,-12.01 25,-21.46 1.95,-1.94 3.27,-2.91 3.96,-2.91 0.42,0 0.63,0.41 0.63,1.25 0,0.83 -1.05,2.5 -3.13,5 -7.22,8.89 -15.35,16.04 -24.38,21.46 -10.83,6.66 -21.18,10 -31.04,10 -4.31,0 -7.81,-0.94 -10.52,-2.81 -2.71,-1.88 -4.07,-5.66 -4.07,-11.36 0,-5.69 2.51,-13.51 7.51,-23.44 5,-9.93 8.82,-17.33 11.46,-22.19 -1.95,0.42 -3.62,0.63 -5.01,0.63 -4.02,0 -6.04,-1.6 -6.04,-4.8 0,-2.36 1.67,-4.02 5,-5 0.42,0 1.04,-0.06 1.88,-0.2l12.08 0c2.5,-3.2 5.35,-6.88 8.54,-11.05 3.89,-5 6.53,-7.5 7.92,-7.5 1.39,0 3.13,0.56 5.21,1.67 2.08,1.11 3.13,2.43 3.13,3.96 0,1.53 -3.34,6.04 -10.01,13.54 3.62,0.14 8.34,0.21 14.17,0.21z"/>
     <path id="13" class="fil1" d="M1816.59 760.49c2.09,0 4.07,0.66 5.94,1.98 1.88,1.32 2.82,2.88 2.82,4.69 0,1.8 -0.87,3.37 -2.61,4.69 -1.73,1.32 -3.64,1.98 -5.73,1.98 -2.08,0 -3.99,-0.77 -5.73,-2.3 -1.73,-1.52 -2.6,-3.26 -2.6,-5.21 0,-3.88 2.64,-5.83 7.91,-5.83zm-37.71 87.3c-7.08,0 -10.62,-4.58 -10.62,-13.75 0,-7.5 4.1,-17.88 12.29,-31.15 8.2,-13.26 14.79,-19.97 19.79,-20.11 1.39,0 2.96,0.56 4.69,1.67 1.74,1.11 2.61,2.22 2.61,3.33 -0.7,0.98 -1.53,2.05 -2.5,3.23 -0.98,1.19 -2.02,2.47 -3.13,3.86 -1.11,1.39 -2.64,3.37 -4.58,5.94 -1.95,2.57 -3.82,5.03 -5.63,7.39 -10.42,13.48 -15.62,22.75 -15.62,27.82 0,5.07 1.73,7.6 5.2,7.6 2.92,0 6.88,-1.59 11.88,-4.79 11.67,-7.22 20.9,-15.14 27.71,-23.75 2.5,-3.2 4.2,-4.79 5.1,-4.79 0.91,0 1.36,0.55 1.36,1.66 0,1.11 -1.6,3.34 -4.79,6.67 -3.2,3.33 -5.73,5.97 -7.61,7.92 -1.87,1.94 -3.16,3.23 -3.85,3.85 -0.7,0.63 -1.98,1.81 -3.86,3.54 -1.87,1.74 -3.3,2.96 -4.27,3.65 -0.97,0.7 -2.36,1.74 -4.17,3.13 -1.8,1.39 -3.4,2.39 -4.79,3.02 -1.39,0.62 -2.98,1.35 -4.79,2.19 -2.92,1.24 -6.39,1.87 -10.42,1.87z"/>
     <path id="14" class="fil1" d="M1887.29 801.33c0,4.86 -4.65,12.98 -13.96,24.37 -10.97,13.48 -20.35,20.22 -28.13,20.22l-3.33 0c-3.61,0 -6.46,-1.88 -8.54,-5.63 -1.67,-2.64 -2.5,-5.56 -2.5,-8.75 0,-8.34 6.07,-20.04 18.23,-35.11 12.15,-15.07 21.98,-22.6 29.48,-22.6 7.08,0 10.62,3.75 10.62,11.25 0,1.94 -0.34,4.44 -1.04,7.5 0.14,0.41 1.46,0.62 3.96,0.62 2.5,0 6.32,-1.32 11.46,-3.96 -0.14,2.36 -5.63,5.77 -16.46,10.21 0.14,0.56 0.21,1.18 0.21,1.88zm-13.54 -10.84c-4.73,0 -11.43,5.56 -20.11,16.67 -8.68,11.11 -13.02,19.31 -13.02,24.59 0,5.28 1.67,7.91 5,7.91 5.97,0 13.54,-5.41 22.71,-16.25 9.17,-10.83 13.75,-18.61 13.75,-23.33 -2.22,-1.25 -5,-4.45 -8.33,-9.59z"/>
     <path id="15" class="fil1" d="M1939.44 779.66c3.75,0 5.62,1.46 5.62,4.37 0,0.84 -0.2,1.67 -0.62,2.51 -12.5,17.36 -20,30.48 -22.5,39.37 32.36,-32.36 52.02,-48.54 58.96,-48.54 0.7,-0.14 1.32,-0.21 1.88,-0.21 3.89,0 5.83,1.74 5.83,5.21 0,0.69 -0.14,1.39 -0.42,2.08 -0.28,0.7 -3.05,4.45 -8.33,11.25 -6.11,7.23 -11.29,14.17 -15.52,20.84 -4.24,6.66 -6.36,12.22 -6.36,16.67 0,4.44 0.97,6.66 2.92,6.66 6.11,0 16.74,-8.4 31.88,-25.21 0.27,-0.28 0.76,-0.9 1.46,-1.87 2.08,-2.5 3.33,-3.75 3.75,-3.75 0.41,0 0.62,0.69 0.62,2.08 0,1.39 -0.97,3.19 -2.92,5.42 -17.22,19.58 -29.44,29.38 -36.67,29.38 -6.8,0 -10.21,-3.76 -10.21,-11.26 0,-7.5 2.78,-16.11 8.34,-25.83l13.33 -21.67c-9.44,6.95 -17.85,14.55 -25.21,22.81 -7.36,8.27 -14.06,16.29 -20.1,24.07 -6.04,7.78 -9.55,11.67 -10.53,11.67 -2.08,0 -3.71,-0.87 -4.89,-2.61 -1.18,-1.73 -1.77,-3.89 -1.77,-6.46 0,-2.57 0.9,-6 2.71,-10.31 1.8,-4.31 4.09,-9.51 6.87,-15.63l-12.5 13.13c-3.06,3.06 -4.96,4.58 -5.73,4.58 -0.76,0 -1.14,-0.45 -1.14,-1.35 0,-0.9 0.55,-1.91 1.66,-3.02 5.14,-5.14 9.59,-10.07 13.34,-14.8 3.61,-4.72 11.04,-13.75 22.29,-27.08 1.25,-1.67 2.57,-2.5 3.96,-2.5z"/>
     <rect class="fil0" x="442.7" y="578.96" width="1476.5" height="23.62"/>
     <path class="fil1" d="M4071.4 473.88c-1.2,0.4 -2.8,0.85 -4.8,1.35 -2,0.5 -4.2,0.75 -6.6,0.75 -8.8,0 -13.2,-3.7 -13.2,-11.1l0 -159.62c0,-3.2 0.8,-5.65 2.4,-7.35 1.6,-1.7 4.1,-3.05 7.5,-4.05 5.8,-1.8 12.95,-3.1 21.45,-3.9 8.5,-0.8 16.75,-1.2 24.75,-1.2 25.21,0 43.96,5.05 56.26,15.15 12.3,10.1 18.45,24.46 18.45,43.06 0,13.8 -3.55,25.4 -10.65,34.8 -7.1,9.4 -17.85,16.1 -32.25,20.1 5,6.4 10,12.8 15,19.2 5,6.4 9.75,12.45 14.25,18.15 4.5,5.7 8.5,10.85 12,15.46 3.5,4.6 6.25,8.2 8.25,10.8 -0.8,3.4 -2.55,6.1 -5.25,8.1 -2.7,2 -5.45,3 -8.25,3 -3.4,0 -6.2,-0.8 -8.4,-2.4 -2.2,-1.6 -4.5,-4.1 -6.9,-7.5l-43.81 -61.21 -40.2 0 0 68.41zm34.2 -88.81c14.81,0 26.41,-3.2 34.81,-9.6 8.4,-6.4 12.6,-15.9 12.6,-28.5 0,-12.6 -4.4,-22.05 -13.2,-28.36 -8.8,-6.3 -21.41,-9.45 -37.81,-9.45 -5.4,0 -10.85,0.25 -16.35,0.75 -5.5,0.5 -10.35,1.15 -14.55,1.95l0 73.21 34.5 0z"/>
     <path id="1" class="fil1" d="M4268.82 458.88c8.4,0 15.35,-0.85 20.85,-2.55 5.5,-1.7 9.45,-3.35 11.85,-4.95l0 -43.51 -37.2 3.9c-10.4,1 -18.1,3.35 -23.1,7.05 -5,3.7 -7.51,9.15 -7.51,16.35 0,7.61 2.9,13.46 8.71,17.56 5.8,4.1 14.6,6.15 26.4,6.15zm-0.3 -126.91c17.4,0 31.2,3.9 41.4,11.7 10.2,7.8 15.3,20.1 15.3,36.9l0 71.11c0,4.4 -0.85,7.75 -2.55,10.05 -1.7,2.3 -4.25,4.45 -7.65,6.45 -4.8,2.8 -11.15,5.25 -19.05,7.35 -7.9,2.1 -16.95,3.15 -27.15,3.15 -18.8,0 -33.35,-3.7 -43.66,-11.1 -10.3,-7.4 -15.45,-18.11 -15.45,-32.11 0,-13.2 4.3,-23.15 12.9,-29.85 8.6,-6.7 20.71,-10.85 36.31,-12.45l42.6 -4.2 0 -8.4c0,-10 -3,-17.3 -9,-21.9 -6,-4.6 -14.1,-6.9 -24.3,-6.9 -8.4,0 -16.3,1.2 -23.7,3.6 -7.4,2.4 -14,5.1 -19.81,8.1 -1.6,-1.4 -3.05,-3 -4.35,-4.8 -1.3,-1.8 -1.95,-3.8 -1.95,-6 0,-2.8 0.7,-5.1 2.1,-6.9 1.4,-1.8 3.6,-3.5 6.6,-5.1 5.4,-2.8 11.6,-4.95 18.61,-6.45 7,-1.5 14.6,-2.25 22.8,-2.25z"/>
     <path id="2" class="fil1" d="M4348.32 518.28c3.6,-1.6 6.86,-3.25 9.76,-4.95 2.9,-1.7 5.3,-3.8 7.2,-6.3 1.9,-2.5 3.4,-5.6 4.5,-9.3 1.1,-3.7 1.65,-8.45 1.65,-14.25l0 -147.01c1,-0.4 2.55,-0.85 4.65,-1.35 2.1,-0.5 4.35,-0.75 6.75,-0.75 8.4,0 12.6,3.7 12.6,11.1l0 142.51c0,8.8 -1.2,16.05 -3.6,21.75 -2.4,5.7 -5.35,10.3 -8.85,13.8 -3.5,3.5 -7.15,5.95 -10.95,7.35 -3.8,1.4 -7.1,2.1 -9.9,2.1 -5,0 -8.45,-1.45 -10.36,-4.35 -1.9,-2.9 -3.05,-6.35 -3.45,-10.35zm19.51 -226.22c0,-4.2 1.45,-7.75 4.35,-10.65 2.9,-2.9 6.65,-4.35 11.25,-4.35 4.6,0 8.3,1.45 11.1,4.35 2.8,2.9 4.2,6.45 4.2,10.65 0,4.2 -1.4,7.75 -4.2,10.65 -2.8,2.9 -6.5,4.35 -11.1,4.35 -4.6,0 -8.35,-1.45 -11.25,-4.35 -2.9,-2.9 -4.35,-6.45 -4.35,-10.65z"/>
     <path id="3" class="fil1" d="M4491.44 458.88c8.4,0 15.35,-0.85 20.85,-2.55 5.5,-1.7 9.45,-3.35 11.85,-4.95l0 -43.51 -37.2 3.9c-10.4,1 -18.11,3.35 -23.11,7.05 -5,3.7 -7.5,9.15 -7.5,16.35 0,7.61 2.9,13.46 8.7,17.56 5.8,4.1 14.6,6.15 26.41,6.15zm-0.3 -126.91c17.4,0 31.2,3.9 41.4,11.7 10.2,7.8 15.3,20.1 15.3,36.9l0 71.11c0,4.4 -0.85,7.75 -2.55,10.05 -1.7,2.3 -4.25,4.45 -7.65,6.45 -4.8,2.8 -11.15,5.25 -19.05,7.35 -7.9,2.1 -16.95,3.15 -27.15,3.15 -18.8,0 -33.36,-3.7 -43.66,-11.1 -10.3,-7.4 -15.45,-18.11 -15.45,-32.11 0,-13.2 4.3,-23.15 12.9,-29.85 8.6,-6.7 20.7,-10.85 36.31,-12.45l42.6 -4.2 0 -8.4c0,-10 -3,-17.3 -9,-21.9 -6,-4.6 -14.1,-6.9 -24.3,-6.9 -8.4,0 -16.31,1.2 -23.71,3.6 -7.4,2.4 -14,5.1 -19.8,8.1 -1.6,-1.4 -3.05,-3 -4.35,-4.8 -1.3,-1.8 -1.95,-3.8 -1.95,-6 0,-2.8 0.7,-5.1 2.1,-6.9 1.4,-1.8 3.6,-3.5 6.6,-5.1 5.4,-2.8 11.6,-4.95 18.6,-6.45 7.01,-1.5 14.61,-2.25 22.81,-2.25z"/>
     <path id="4" class="fil1" d="M4706.25 457.98c13.4,0 23.56,-3.05 30.46,-9.15 6.9,-6.11 10.35,-13.96 10.35,-23.56 0,-8.4 -2.65,-15.2 -7.95,-20.4 -5.3,-5.2 -13.65,-9.5 -25.06,-12.9l-26.1 -7.8c-12.8,-3.8 -22.85,-9.4 -30.15,-16.8 -7.3,-7.4 -10.95,-17.4 -10.95,-30 0,-7.6 1.45,-14.45 4.35,-20.56 2.9,-6.1 7.05,-11.25 12.45,-15.45 5.4,-4.2 11.85,-7.45 19.35,-9.75 7.5,-2.3 15.95,-3.45 25.35,-3.45 8,0 15.46,0.65 22.36,1.95 6.9,1.3 12.9,3.1 18,5.4 5.1,2.3 9.05,4.85 11.85,7.65 2.8,2.8 4.2,5.7 4.2,8.7 0,2.8 -0.7,5.2 -2.1,7.2 -1.4,2 -3.2,3.6 -5.4,4.8 -5.2,-4 -11.95,-7.5 -20.25,-10.5 -8.3,-3 -17.55,-4.5 -27.76,-4.5 -11.8,0 -21.05,2.5 -27.75,7.5 -6.7,5 -10.05,12.01 -10.05,21.01 0,7 2.4,12.7 7.2,17.1 4.8,4.4 12.8,8.2 24,11.4l18.31 5.4c15.8,4.6 28.25,11.05 37.35,19.35 9.1,8.3 13.65,19.85 13.65,34.65 0,15.8 -5.7,28.61 -17.1,38.41 -11.4,9.8 -27.6,14.7 -48.61,14.7 -9.2,0 -17.55,-0.8 -25.05,-2.4 -7.5,-1.6 -13.9,-3.7 -19.2,-6.3 -5.3,-2.6 -9.4,-5.45 -12.3,-8.55 -2.9,-3.1 -4.35,-6.15 -4.35,-9.15 0,-3.41 1.05,-6.26 3.15,-8.56 2.1,-2.29 4.55,-3.95 7.35,-4.95 2.2,2.21 4.9,4.46 8.1,6.75 3.2,2.3 6.9,4.4 11.1,6.31 4.2,1.9 8.9,3.45 14.1,4.65 5.2,1.2 10.9,1.8 17.1,1.8z"/>
     <path id="5" class="fil1" d="M4807.66 336.47c1,-0.4 2.55,-0.85 4.65,-1.35 2.1,-0.5 4.35,-0.75 6.75,-0.75 8.4,0 12.6,3.7 12.6,11.1l0 77.1c0,13 3.41,22.25 10.21,27.76 6.8,5.5 16.2,8.25 28.2,8.25 8,0 14.8,-0.85 20.4,-2.55 5.6,-1.7 10,-3.45 13.2,-5.25l0 -114.31c1,-0.4 2.55,-0.85 4.65,-1.35 2.1,-0.5 4.25,-0.75 6.45,-0.75 8.6,0 12.9,3.7 12.9,11.1l0 104.41c0,4.2 -0.55,7.55 -1.65,10.05 -1.1,2.5 -3.75,4.95 -7.95,7.35 -4.6,2.6 -10.95,5.1 -19.05,7.5 -8.1,2.4 -17.85,3.6 -29.25,3.6 -20,0 -35.36,-4.4 -46.06,-13.2 -10.7,-8.8 -16.05,-22.61 -16.05,-41.41l0 -87.3z"/>
     <path id="6" class="fil1" d="M5068.68 384.17c0,-11.2 -3.15,-19.4 -9.45,-24.6 -6.3,-5.2 -14.75,-7.8 -25.35,-7.8 -8,0 -15.1,1 -21.3,3 -6.2,2 -11.5,4.3 -15.9,6.9l0 112.21c-1,0.4 -2.5,0.85 -4.5,1.35 -2,0.5 -4.2,0.75 -6.6,0.75 -8.6,0 -12.9,-3.6 -12.9,-10.8l0 -102.31c0,-4.2 0.85,-7.65 2.55,-10.35 1.7,-2.7 4.65,-5.35 8.85,-7.95 5.2,-3.2 12.1,-6.1 20.7,-8.7 8.6,-2.6 18.3,-3.9 29.1,-3.9 18.2,0 32.55,4.1 43.05,12.3 10.51,8.2 15.76,21.1 15.76,38.7l0 90.91c-1,0.4 -2.55,0.85 -4.65,1.35 -2.1,0.5 -4.25,0.75 -6.45,0.75 -8.61,0 -12.91,-3.6 -12.91,-10.8l0 -81.01z"/>
     <path id="7" class="fil1" d="M5256.2 451.68c0,4 -0.85,7.1 -2.55,9.3 -1.7,2.2 -4.35,4.4 -7.95,6.6 -4,2.6 -9.7,5.05 -17.1,7.35 -7.4,2.3 -15.9,3.45 -25.5,3.45 -10.81,0 -20.71,-1.4 -29.71,-4.2 -9,-2.8 -16.75,-7.15 -23.25,-13.05 -6.5,-5.9 -11.5,-13.4 -15,-22.51 -3.5,-9.1 -5.25,-20.05 -5.25,-32.85 0,-13 1.8,-24.15 5.4,-33.45 3.6,-9.3 8.45,-16.95 14.55,-22.95 6.1,-6 13.3,-10.4 21.6,-13.2 8.3,-2.8 17.15,-4.2 26.55,-4.2 6.41,0 12.61,0.8 18.61,2.4 6,1.6 11.2,3.6 15.6,6l0 -60.31c1,-0.4 2.55,-0.85 4.65,-1.35 2.1,-0.5 4.25,-0.75 6.45,-0.75 8.6,0 12.9,3.6 12.9,10.8l0 162.92zm-24 -89.71c-4,-2.8 -8.6,-5.2 -13.8,-7.2 -5.2,-2 -11.21,-3 -18.01,-3 -6.2,0 -12.05,0.95 -17.55,2.85 -5.5,1.9 -10.35,5 -14.55,9.3 -4.2,4.3 -7.55,9.95 -10.05,16.95 -2.5,7 -3.75,15.5 -3.75,25.5 0,18.4 4.4,31.7 13.2,39.91 8.8,8.2 20.5,12.3 35.11,12.3 7,0 12.75,-0.75 17.25,-2.25 4.5,-1.5 8.55,-3.35 12.15,-5.55l0 -88.81z"/>
     <path id="8" class="fil1" d="M5351.31 458.88c8.4,0 15.35,-0.85 20.85,-2.55 5.5,-1.7 9.45,-3.35 11.85,-4.95l0 -43.51 -37.2 3.9c-10.4,1 -18.1,3.35 -23.1,7.05 -5.01,3.7 -7.51,9.15 -7.51,16.35 0,7.61 2.9,13.46 8.71,17.56 5.8,4.1 14.6,6.15 26.4,6.15zm-0.3 -126.91c17.4,0 31.2,3.9 41.4,11.7 10.2,7.8 15.3,20.1 15.3,36.9l0 71.11c0,4.4 -0.85,7.75 -2.55,10.05 -1.7,2.3 -4.25,4.45 -7.65,6.45 -4.8,2.8 -11.15,5.25 -19.05,7.35 -7.9,2.1 -16.95,3.15 -27.15,3.15 -18.8,0 -33.36,-3.7 -43.66,-11.1 -10.3,-7.4 -15.45,-18.11 -15.45,-32.11 0,-13.2 4.3,-23.15 12.9,-29.85 8.6,-6.7 20.71,-10.85 36.31,-12.45l42.6 -4.2 0 -8.4c0,-10 -3,-17.3 -9,-21.9 -6,-4.6 -14.1,-6.9 -24.3,-6.9 -8.4,0 -16.3,1.2 -23.7,3.6 -7.4,2.4 -14.01,5.1 -19.81,8.1 -1.6,-1.4 -3.05,-3 -4.35,-4.8 -1.3,-1.8 -1.95,-3.8 -1.95,-6 0,-2.8 0.7,-5.1 2.1,-6.9 1.4,-1.8 3.6,-3.5 6.6,-5.1 5.4,-2.8 11.6,-4.95 18.61,-6.45 7,-1.5 14.6,-2.25 22.8,-2.25z"/>
     <rect class="fil0" x="3986.3" y="579.24" width="1476.5" height="23.62"/>
     <path class="fil1" d="M4591.89 806.13c0,5.01 -1.11,9.73 -3.34,14.17 -4.72,10 -13.75,18.34 -27.08,25.01 -13.34,6.66 -27.23,10 -41.67,10 -21.95,0 -36.88,-7.5 -44.8,-22.51 -14.3,11.95 -24.51,17.92 -30.63,17.92 -1.11,0 -2.08,-0.21 -2.91,-0.62 -4.17,-2.23 -6.25,-7.02 -6.25,-14.38 0,-7.36 3.05,-16.39 9.16,-27.08 6.12,-10.7 11.46,-17.02 16.05,-18.96 2.08,-0.7 3.68,-1.05 4.79,-1.05 4.03,0 7.08,3.34 9.17,10l6.25 20.01c4.03,-4.31 9.51,-11.18 16.46,-20.63l18.54 -25c22.78,-29.59 37.71,-45.77 44.8,-48.55 2.5,-0.97 5.07,-1.46 7.71,-1.46 2.63,0 4.82,0.56 6.56,1.67 1.73,1.11 2.6,2.5 2.6,4.17 0,2.5 -2.01,3.96 -6.04,4.37 -4.17,2.36 -12.12,9.27 -23.86,20.73 -11.73,11.46 -18.71,18.72 -20.94,21.78 -15.55,21.66 -29.93,38.33 -43.12,50 8.47,16.81 21.18,25.21 38.12,25.21 10.28,0 20.49,-3.23 30.63,-9.69 10.14,-6.46 17.71,-14.41 22.71,-23.85 2.22,-4.03 3.34,-8.55 3.34,-13.55 0,-5 -1.98,-9.75 -5.94,-14.27 -3.96,-4.51 -8.93,-7.81 -14.9,-9.9 -2.78,-0.41 -7.22,-1 -13.33,-1.77 -6.11,-0.76 -9.17,-2.05 -9.17,-3.85 0,-0.69 0.28,-1.32 0.83,-1.88 1.67,-1.94 3.82,-2.91 6.46,-2.91 1.53,0 3.02,0.28 4.48,0.83 1.46,0.56 2.61,0.97 3.44,1.25 0.83,0.28 1.8,0.63 2.92,1.04 3.05,0.28 5.69,0.42 7.91,0.42 9.17,0 17.5,-1.46 25,-4.38 9.59,-3.75 15.7,-9.37 18.34,-16.87 1.67,-4.86 2.5,-9.24 2.5,-13.13 0,-9.58 -4.65,-16.74 -13.96,-21.46 -8.06,-4.17 -19.1,-6.25 -33.13,-6.25 -22.08,0 -41.88,4.17 -59.38,12.5 -8.89,4.17 -17.32,10.35 -25.31,18.54 -7.99,8.2 -11.98,15.21 -11.98,21.05 0,4.03 1.04,7.36 3.12,10 0.84,1.11 2.3,2.5 4.38,4.17 0.69,0.41 0.28,0.62 -1.25,0.62 -8.61,-1.94 -12.92,-7.71 -12.92,-17.29 0,-9.59 4.86,-18.62 14.59,-27.09 7.22,-6.25 15.34,-11.32 24.37,-15.21 18.75,-8.05 40.08,-12.08 63.97,-12.08 17.08,0 30.69,2.5 40.83,7.5 11.81,5.56 17.71,13.96 17.71,25.21 0,4.44 -0.9,8.96 -2.71,13.54 -2.91,8.34 -10.48,14.66 -22.71,18.96 -9.16,3.2 -19.03,4.86 -29.58,5 8.19,0.42 15.1,3.44 20.73,9.07 5.62,5.62 8.44,12.6 8.44,20.93zm-133.14 -7.7c-0.14,0 -0.49,0.14 -1.04,0.41 -10.28,14.87 -15.42,26.81 -15.42,35.84 0,3.75 0.9,7.15 2.71,10.21 0.42,0.69 1.11,1.04 2.08,1.04 4.45,0 12.99,-6.32 25.63,-18.96l-0.62 -0.83c-5.56,-18.48 -10.01,-27.71 -13.34,-27.71z"/>
     <path id="1" class="fil1" d="M4627.16 848.22c-1.53,0 -2.92,-0.21 -4.17,-0.62 -8.88,-2.5 -13.33,-7.5 -13.33,-15 0,-9.73 6.11,-20.98 18.33,-33.76 12.23,-12.78 23.2,-19.17 32.92,-19.17 3.2,0 5.8,0.87 7.82,2.61 2.01,1.74 3.02,3.85 3.02,6.35 0,7.78 -5.87,15.21 -17.61,22.3 -11.73,7.08 -21.28,10.62 -28.64,10.62 -1.12,0 -2.09,-0.14 -2.92,-0.41 -2.09,3.75 -3.13,7.71 -3.13,11.87 0,7.22 3.44,10.84 10.32,10.84 6.87,0 15.8,-4.66 26.77,-13.96 8.47,-6.81 15.7,-14.03 21.67,-21.67 1.25,-1.67 2.32,-2.5 3.23,-2.5 0.9,0 1.35,0.41 1.35,1.25 0,0.83 -0.55,2.01 -1.66,3.54 -7.51,9.86 -16.53,18.61 -27.09,26.25 -10.56,7.64 -19.52,11.46 -26.88,11.46zm39.38 -60c0,-1.67 -1.77,-2.5 -5.31,-2.5 -3.54,0 -8.58,2.71 -15.11,8.12 -8.75,7.23 -15.55,14.8 -20.42,22.71 0.84,0.28 1.74,0.42 2.71,0.42 5.28,0 12.33,-2.81 21.15,-8.44 8.82,-5.62 14.34,-11.77 16.56,-18.44 0.28,-0.69 0.42,-1.32 0.42,-1.87z"/>
     <path id="2" class="fil1" d="M4727.23 848.01c-10.97,0 -20.28,-8.68 -27.92,-26.04 -1.94,2.92 -6.32,11.11 -13.12,24.59 -5,-1.95 -7.5,-4.59 -7.5,-7.92 0,-5.97 8.96,-22.36 26.87,-49.17 17.92,-26.81 30.22,-42.58 36.88,-47.3 0.56,-0.42 1.67,-0.62 3.34,-0.62 4.3,0 6.45,1.11 6.45,3.33 0,1.11 -4.82,7.36 -14.48,18.75 -9.65,11.39 -15.03,18.27 -16.14,20.63 12.64,-6.53 22.71,-9.79 30.21,-9.79 4.3,0 7.98,1.73 11.04,5.2 2.92,2.92 4.38,5.91 4.38,8.96 0,0.42 0,0.84 0,1.25 -1.11,7.92 -6.67,14.45 -16.67,19.59 -8.06,4.3 -15.56,6.46 -22.5,6.46 -6.95,0 -11.81,-0.91 -14.59,-2.71 -0.83,-0.14 -1.49,0.07 -1.98,0.62 -0.48,0.56 -0.59,1.25 -0.31,2.09 3.89,17.22 10.35,25.83 19.38,25.83 4.72,0 10.8,-2.64 18.23,-7.91 7.43,-5.28 15.17,-12.71 23.23,-22.3 0.97,-0.97 1.84,-1.46 2.6,-1.46 0.77,0 1.15,0.39 1.15,1.15 0,0.76 -0.49,1.84 -1.46,3.23 -7.5,9.17 -14.58,16.39 -21.25,21.67 -10.14,7.91 -18.75,11.87 -25.84,11.87zm30.01 -63.75c0,-1.11 -0.63,-2.22 -1.88,-3.34 -1.25,-1.11 -2.57,-1.66 -3.96,-1.66 -7.5,0 -16.49,3.12 -26.98,9.37 -10.49,6.25 -16.91,13.34 -19.27,21.26 1.25,0 4.58,0.2 10,0.62 6.25,0 14.44,-2.57 24.58,-7.71 11.67,-5.83 17.51,-12.01 17.51,-18.54z"/>
     <path id="3" class="fil1" d="M4850.43 783.22l2.92 -0.63c1.53,0 2.98,0.63 4.37,1.88 1.39,1.25 2.09,2.22 2.09,2.91 0,0.7 -4.31,7.4 -12.92,20.11 -8.61,12.71 -12.92,21.56 -12.92,26.56 0,0.42 0.07,0.84 0.21,1.25 0.69,3.2 2.22,4.8 4.58,4.8 7.23,0 20.42,-11.95 39.59,-35.84 0.42,-0.55 0.9,-0.83 1.46,-0.83 0.55,0 0.83,0.52 0.83,1.56 0,1.04 -0.62,2.4 -1.87,4.06 -17.78,23.75 -31.33,35.63 -40.63,35.63 -1.25,0 -2.43,-0.21 -3.54,-0.63 -6.12,-2.36 -9.17,-6.94 -9.17,-13.75 0,-2.36 0.28,-4.72 0.83,-7.08l-12.92 12.5c-8.19,7.22 -14.13,10.84 -17.81,10.84 -3.68,0 -7.19,-1.19 -10.52,-3.55 -3.75,-2.78 -5.63,-6.46 -5.63,-11.04 0,-10.14 7.09,-22.26 21.26,-36.36 14.16,-14.1 27.15,-21.14 38.96,-21.14 4.58,0 7.64,1.59 9.16,4.79 0.42,1.11 0.77,2.05 1.05,2.81 0.27,0.76 0.48,1.15 0.62,1.15zm-62.3 51.25c0,5 1.74,7.5 5.21,7.5 8.06,0 19.03,-8.82 32.92,-26.46l22.09 -30.42c-1.11,-1.94 -2.92,-2.91 -5.42,-2.91 -8.47,0 -19.72,6.56 -33.75,19.68 -14.03,13.13 -21.05,24 -21.05,32.61z"/>
     <path id="4" class="fil1" d="M4919.67 842.39c-4.03,2.36 -9,3.54 -14.9,3.54 -5.9,0 -10.42,-1.94 -13.54,-5.83 -3.13,-3.89 -5.8,-10.07 -8.03,-18.55 -2.5,2.5 -4.23,3.75 -5.2,3.75 -0.7,0 -1.05,-0.48 -1.05,-1.45 0,-0.98 0.35,-1.81 1.05,-2.5 4.58,-5.7 12.36,-13.89 23.33,-24.59l26.25 -24.59c7.5,-7.08 11.95,-10.62 13.34,-10.62 4.44,0 6.66,1.66 6.66,5 0,1.67 -0.66,3.3 -1.97,4.9 -1.32,1.59 -2.3,2.84 -2.92,3.75 -0.63,0.9 -1.29,1.77 -1.98,2.6 -2.5,4.31 -5.04,13.2 -7.61,26.67 -2.57,13.47 -4.54,22.85 -5.93,28.13 11.53,-0.14 23.4,-7.64 35.62,-22.51 1.39,-1.38 2.43,-2.08 3.13,-2.08 0.69,0 1.04,0.45 1.04,1.36 0,0.9 -0.62,2.11 -1.87,3.64 -8.06,9.45 -15.56,16.04 -22.51,19.79 -4.16,2.09 -9.58,3.82 -16.25,5.21l-6.66 4.38zm-28.13 -23.13c0,4.72 1.56,8.58 4.69,11.57 3.12,2.98 6.63,4.47 10.52,4.47 3.89,0 6.87,-0.76 8.96,-2.29 2.77,-1.53 5.52,-7.91 8.23,-19.17 2.71,-11.25 4.34,-21.18 4.89,-29.79l0.84 -7.08c-7.64,5.69 -15.8,13.05 -24.48,22.08 -8.69,9.03 -13.17,15 -13.44,17.92 -0.14,0.83 -0.21,1.6 -0.21,2.29z"/>
     <path id="5" class="fil1" d="M5015.78 760.51c2.08,0 4.06,0.66 5.94,1.98 1.87,1.32 2.81,2.88 2.81,4.68 0,1.81 -0.87,3.37 -2.61,4.69 -1.73,1.32 -3.64,1.98 -5.73,1.98 -2.08,0 -3.99,-0.76 -5.73,-2.29 -1.73,-1.53 -2.6,-3.27 -2.6,-5.21 0,-3.89 2.64,-5.83 7.92,-5.83zm-37.71 87.3c-7.09,0 -10.63,-4.59 -10.63,-13.76 0,-7.5 4.1,-17.88 12.29,-31.14 8.2,-13.27 14.8,-19.97 19.8,-20.11 1.39,0 2.95,0.56 4.69,1.67 1.73,1.11 2.6,2.22 2.6,3.33 -0.69,0.97 -1.53,2.05 -2.5,3.23 -0.97,1.18 -2.01,2.47 -3.13,3.85 -1.11,1.39 -2.64,3.37 -4.58,5.94 -1.94,2.57 -3.82,5.04 -5.63,7.4 -10.41,13.47 -15.62,22.74 -15.62,27.81 0,5.07 1.73,7.61 5.21,7.61 2.91,0 6.87,-1.6 11.87,-4.79 11.67,-7.23 20.91,-15.14 27.71,-23.76 2.5,-3.19 4.21,-4.79 5.11,-4.79 0.9,0 1.35,0.56 1.35,1.67 0,1.11 -1.6,3.33 -4.79,6.67 -3.19,3.33 -5.73,5.97 -7.6,7.91 -1.88,1.95 -3.16,3.23 -3.86,3.86 -0.69,0.62 -1.98,1.8 -3.85,3.54 -1.88,1.74 -3.3,2.95 -4.27,3.65 -0.98,0.69 -2.37,1.73 -4.17,3.12 -1.81,1.39 -3.4,2.4 -4.79,3.02 -1.39,0.63 -2.99,1.36 -4.8,2.19 -2.91,1.25 -6.39,1.88 -10.41,1.88z"/>
     <path class="fil1" d="M2770.45 55.99c-58.34,0 -102.97,47.25 -102.97,105.59 0,58.33 44.63,105.88 102.97,105.88 58.34,0 103.26,-47.55 103.26,-105.88 0,-58.34 -44.92,-105.59 -103.26,-105.59zm0 195.72c-49.59,0 -87.51,-40.25 -87.51,-90.13 0,-49.59 37.92,-90.14 87.51,-90.14 49.88,0 87.8,40.55 87.8,90.14 0,49.88 -37.92,90.13 -87.8,90.13z"/>
     <path id="1" class="fil1" d="M3006.13 251.71c-49.87,0 -87.5,-40.25 -87.5,-90.13 0,-49.59 37.63,-90.14 87.5,-90.14 27.42,0 51.05,12.26 66.8,31.51l13.13 -8.46c-18.67,-23.63 -47.26,-38.5 -79.93,-38.5 -58.33,0 -103.25,47.25 -103.25,105.59 0,58.33 44.92,105.88 103.25,105.88 32.67,0 61.26,-15.17 79.93,-38.5l-13.13 -8.75c-15.75,19.25 -39.38,31.5 -66.8,31.5z"/>
     <path id="2" class="fil1" d="M3238.03 59.49l-127.18 0 0 15.75 55.71 0 0 188.43 15.46 0 0 -188.43 56.01 0 0 -15.75z"/>
     <path class="fil1" d="M2622.11 1107.73c12.83,-14 48.13,-55.71 51.04,-58.92 23.34,-28.29 42.3,-49 42.3,-77 0,-30.34 -21.29,-56.3 -53.96,-56.3 -30.05,0 -53.67,19.54 -60.09,51.34l15.46 2.91c4.67,-24.79 21.88,-38.79 44.63,-38.79 20.71,0 38.5,16.04 38.5,40.84 0,21.58 -17.21,41.12 -38.79,66.79 -2.92,3.5 -46.68,54.26 -60.09,69.13l0 15.46 120.76 0 0 -15.46 -99.76 0z"/>
     <path id="1" class="fil1" d="M2875.88 915.51c-53.09,0 -75.84,54.54 -75.84,105.59 0,51.34 22.75,105.88 75.84,105.88 52.8,0 75.55,-54.54 75.55,-105.88 0,-51.05 -22.75,-105.59 -75.55,-105.59zm0 195.72c-45.21,0 -60.38,-49.88 -60.38,-90.13 0,-40.25 15.17,-90.13 60.38,-90.13 44.92,0 60.09,49.88 60.09,90.13 0,40.25 -15.17,90.13 -60.09,90.13z"/>
     <path id="2" class="fil1" d="M3049.14 1107.73c12.84,-14 48.13,-55.71 51.05,-58.92 23.33,-28.29 42.29,-49 42.29,-77 0,-30.34 -21.29,-56.3 -53.96,-56.3 -30.04,0 -53.67,19.54 -60.09,51.34l15.46 2.91c4.67,-24.79 21.88,-38.79 44.63,-38.79 20.71,0 38.5,16.04 38.5,40.84 0,21.58 -17.21,41.12 -38.79,66.79 -2.92,3.5 -46.67,54.26 -60.09,69.13l0 15.46 120.76 0 0 -15.46 -99.76 0z"/>
     <path id="3" class="fil1" d="M3287.74 919.01l-60.67 40.84 8.17 13.41 50.17 -33.54 0 183.47 15.46 0 0 -204.18 -13.13 0z"/>
    </g>
    <path class="fil1" d="M2750.77 343.1l-154.98 104.76 41.61 68.16 88.26 -59.55 0 388.9 97.58 0 0 -502.27 -72.47 0z"/>
    <path id="1" class="fil1" d="M3107.38 334.49c-147.09,0 -201.62,127 -201.62,259.74 0,133.46 54.53,260.46 201.62,260.46 147.81,0 202.34,-127 202.34,-260.46 0,-132.74 -54.53,-259.74 -202.34,-259.74zm0 427.64c-81.08,0 -104.76,-86.1 -104.76,-167.9 0,-81.08 23.68,-167.18 104.76,-167.18 81.8,0 105.48,86.1 105.48,167.18 0,81.8 -23.68,167.9 -105.48,167.9z"/>
   </g>
  </g>
  <path class="fil2" d="M-0.24 0.45l5906 0 0 1181.2 -5906 0 0 -1181.2z"/>
 </g>
</svg>
